<svg width="40" height="40" viewBox="0 0 40 40" fill="none" xmlns="http://www.w3.org/2000/svg">
<path d="M27.9853 28.4853C27.7977 28.6728 27.5434 28.7782 27.2782 28.7782C27.013 28.7782 26.7586 28.6728 26.5711 28.4853L19.5 21.4142L12.4289 28.4853C12.2414 28.6728 11.987 28.7782 11.7218 28.7782C11.4566 28.7782 11.2023 28.6728 11.0147 28.4853C10.8272 28.2977 10.7218 28.0434 10.7218 27.7782C10.7218 27.5129 10.8272 27.2586 11.0147 27.071L18.0858 20L11.0147 12.9289C10.8272 12.7414 10.7218 12.487 10.7218 12.2218C10.7218 11.9566 10.8272 11.7022 11.0147 11.5147C11.2023 11.3272 11.4566 11.2218 11.7218 11.2218C11.987 11.2218 12.2414 11.3272 12.4289 11.5147L19.5 18.5858L26.5711 11.5147C26.7586 11.3272 27.013 11.2218 27.2782 11.2218C27.5434 11.2218 27.7977 11.3272 27.9853 11.5147C28.1728 11.7022 28.2782 11.9566 28.2782 12.2218C28.2782 12.487 28.1728 12.7414 27.9853 12.9289L20.9142 20L27.9853 27.071C28.1728 27.2586 28.2782 27.5129 28.2782 27.7782C28.2782 28.0434 28.1728 28.2977 27.9853 28.4853Z" fill="#414651"/>
</svg>
